<svg width="32" height="32" xmlns="http://www.w3.org/2000/svg" data-name="Layer 4">
 <title/>

 <g>
  <title>Layer 1</title>
  <g id="svg_5" stroke="null">
   <path d="m26.17751,7.29361a0.20193,0.1904 0 0 0 -0.18579,-0.15658c-0.96138,-0.07009 -1.92473,-0.09019 -2.88857,-0.10128c-0.58355,-0.03516 -1.87793,0.06686 -2.31365,-0.25852c-0.22629,-0.24417 -0.36519,-0.068 -0.5214,0.13066c-1.21483,1.34275 -3.43154,2.22667 -5.22713,1.52827a0.07771,0.07327 0 0 1 0.03867,-0.14057c1.54006,0.19433 3.18736,-0.20916 4.26236,-1.30904c0.45153,-0.58882 0.36235,-1.38263 0.37257,-2.07163c0.03124,-0.36578 -0.00321,-0.61265 -0.46997,-0.58819c-1.99401,-0.04012 -3.98844,-0.04216 -5.98283,-0.04346c-0.18771,-0.00059 -0.38421,-0.00024 -0.52858,0.12979c-0.45274,0.33824 -0.01602,2.8416 0.01869,3.86538a0.1062,0.10014 0 0 1 -0.18896,0.06611c-0.2715,-0.32467 -0.35952,-0.77588 -0.47877,-1.16541c-0.08434,-0.22926 -0.0546,-0.57144 -0.33211,-0.6783c-0.13348,-0.04598 -0.29015,0 -0.42526,0.01813c-1.72789,0.22918 -3.44877,0.54756 -5.19588,0.61391c-0.09836,0.00366 -0.20439,-0.00673 -0.27063,0.07548c-0.11037,0.13919 0.02657,0.27472 0.15955,0.33714c1.07659,0.71503 2.16624,1.41414 3.2981,2.04846c0.17899,0.11284 -0.05256,0.32117 -0.14837,0.41187c-0.11525,0.14391 -0.61734,0.37596 -0.40106,0.57462c0.10044,0.0719 0.22662,-0.01967 0.31781,-0.06379c0.74615,-0.35866 1.42385,-0.82886 2.12616,-1.25422c0.03825,0.01487 0.11454,-0.00413 0.08309,0.05593c-0.03404,0.12979 -0.37541,0.47791 -0.61138,0.72589a0.29119,0.27457 0 0 0 0.04764,0.40699c1.61927,1.01367 3.12466,2.29267 4.85947,2.99228c1.18538,0.42253 6.49167,-3.07865 7.66641,-3.90283c0.97189,-0.63649 1.86454,-1.37516 2.80415,-2.04913c0.07341,-0.04861 0.13131,-0.10674 0.11567,-0.19799l0,0.00003zm-3.94568,2.60888c-1.75279,0.98877 -4.47318,3.11149 -6.58027,3.18779c-0.88013,-0.32924 -2.15235,-1.10602 -2.81587,-1.53366a0.05573,0.05255 0 0 1 0.05277,-0.09196c0.82799,0.32129 2.47958,0.93045 3.20675,0.9745c0.55406,0.03355 4.32168,-1.77157 6.07822,-2.62993a0.05752,0.05424 0 0 1 0.0584,0.09325l0,0.00001z" fill="black" id="svg_1" stroke="null"/>
   <path d="m14.99163,14.51768c0.18016,0.01833 1.12577,-0.05506 0.79036,-0.35732q-0.97561,-0.52483 -1.92231,-1.09571c-0.06699,-0.04039 -0.14683,-0.05262 -0.20502,0.01042c-0.04676,0.05066 -0.03112,0.11115 -0.01635,0.17003c0.15605,0.62123 0.62869,1.22578 1.35331,1.27258l0.00001,0z" fill="black" id="svg_2" stroke="null"/>
   <path d="m18.82661,13.32403c0.04309,-0.10391 0.0745,-0.27685 -0.08822,-0.29419a0.16197,0.15272 0 0 0 -0.10311,0.02966c-0.16022,0.09585 -0.32006,0.19229 -0.4814,0.28645q-0.71641,0.42025 -1.44946,0.81442c-0.15192,0.1082 -0.03533,0.24641 0.11871,0.26883c0.94666,0.32676 1.76676,-0.22981 2.00348,-1.10515l0,-0.00002z" fill="black" id="svg_3" stroke="null"/>
   <path d="m18.35835,26.55681a17.16934,16.18907 0 0 1 -1.89373,1.08663a0.04171,0.03933 0 0 0 0.03216,0.0719c4.63882,-1.53665 9.02773,-6.00069 8.43801,-10.88406c-0.10983,-0.52624 -0.80192,-0.55893 -1.22984,-0.74386c-0.87696,-0.31634 -1.11881,-1.51769 -1.45071,-1.39455c-0.19567,0.10037 0.0078,0.33907 0.02382,0.48998a7.61144,7.17687 0 0 1 0.17344,0.73674c0.82085,3.60851 -2.33864,6.72044 -5.52662,8.21225c-2.24136,0.87637 -4.84959,-1.27915 -6.19735,-2.77848c-0.86015,-1.02091 -1.66202,-2.8064 -1.14146,-4.10613c0.16752,-0.03705 0.09319,0.31406 0.12877,0.41195c0.11262,1.1767 0.80671,2.36932 1.61843,3.22728c2.6237,2.77281 5.24781,2.60609 6.11843,2.09703c1.94429,-1.05367 3.69378,-2.62607 4.36222,-4.69455a4.56286,4.30235 0 0 0 -0.48653,-3.23007c-0.21498,-0.39905 -0.44424,-0.53226 -0.7786,-0.13066c-0.32164,0.33219 -0.63357,0.677 -0.99471,0.97068a0.09177,0.08653 0 0 1 -0.14599,-0.09557c0.35873,-0.91007 0.53112,-1.89067 0.55552,-2.85742a0.04171,0.03933 0 0 0 -0.08192,-0.01042c-0.38163,1.19141 -1.99989,4.64865 -3.66129,4.61035c-1.5456,-0.26352 -2.99456,-2.85612 -3.51121,-4.17665c-0.19259,-0.20723 -0.12539,0.52857 -0.07567,0.72168c0.1399,0.62449 -0.59648,0.63964 -0.28857,1.58857c0.53584,1.67273 2.11589,3.20451 3.70759,3.70102c0.45687,0.1425 0.95362,0.16043 1.4057,-0.03221c0.98512,-0.50469 2.80965,-2.29565 2.87255,-2.29499c0.15792,0.00169 0.0405,0.19437 0.00934,0.2584c-0.70577,1.44529 -1.97912,2.67944 -3.52222,3.33178c-0.54047,0.18426 -4.99533,-0.68247 -5.34179,-5.84848c-0.03984,-0.59389 -0.49487,-0.27669 -0.78515,-0.07921c-0.68187,0.5843 -0.4371,1.35479 -1.55445,1.5011c-2.50887,1.03735 -0.16918,4.6168 0.70748,6.12584c0.11108,0.11288 0.00772,0.24456 -0.12343,0.13951a5.07755,4.78765 0 0 1 -0.50714,-0.51673c-1.12961,-1.29634 -1.81807,-2.96829 -1.81031,-4.65282c0.06549,-0.33966 -0.27772,-0.40424 -0.41337,-0.09947c-0.69906,1.34598 0.04367,2.89541 0.69947,4.12854c1.63929,2.80491 4.83758,4.83374 7.73078,5.56718c0.70206,0.17801 1.37684,-0.11032 1.95167,-0.45773c3.0782,-1.73165 6.18542,-4.34042 6.43056,-7.91444c0.03721,-0.15138 -0.10461,-0.49356 0.17194,-0.46583a0.15434,0.14552 0 0 1 0.12021,0.12464c0.40928,3.55762 -2.94914,6.44658 -5.73606,8.36128l0.00003,0z" fill="black" id="svg_4" stroke="null"/>
  </g>
 </g>
</svg>