<?xml version="1.0" ?><svg data-name="Layer 4" id="Layer_4" viewBox="0 0 600 600" xmlns="http://www.w3.org/2000/svg" style="background-color:white; border-radius: 8px;"><title/><path d="M543.993,78.639a4.841,4.841,0,0,0-4.454-3.981c-23.048-1.782-46.143-2.293-69.25-2.575-13.99-.894-45.021,1.7-55.467-6.573-5.425-6.208-8.755-1.729-12.5,3.322-29.124,34.14-82.267,56.614-125.314,38.857a1.863,1.863,0,0,1,.927-3.574c36.921,4.941,76.413-5.318,102.185-33.283,10.825-14.971,8.687-35.154,8.932-52.672.749-9.3-.077-15.577-11.267-14.955C329.981,2.185,282.167,2.133,234.354,2.1c-4.5-.015-9.211-.006-12.672,3.3-10.854,8.6-.384,72.249.448,98.279a2.546,2.546,0,0,1-4.53,1.681c-6.509-8.255-8.619-19.727-11.478-29.631C204.1,69.9,204.813,61.2,198.16,58.483c-3.2-1.169-6.956,0-10.195.461C146.541,64.771,105.285,72.866,63.4,74.553c-2.358.093-4.9-.171-6.488,1.919-2.646,3.539.637,6.985,3.825,8.572,25.81,18.18,51.933,35.955,79.068,52.083,4.291,2.869-1.26,8.166-3.557,10.472-2.763,3.659-14.8,9.559-9.615,14.61,2.408,1.828,5.433-.5,7.619-1.622,17.888-9.119,34.135-21.074,50.972-31.889.917.378,2.746-.105,1.992,1.422-.816,3.3-9,12.151-14.657,18.456a6.981,6.981,0,0,0,1.142,10.348c38.82,25.773,74.91,58.292,116.5,76.08,28.418,10.743,155.63-78.276,183.793-99.231,23.3-16.183,44.7-34.964,67.226-52.1C542.98,82.437,544.368,80.959,543.993,78.639ZM449.4,144.971c-42.021,25.14-107.239,79.111-157.754,81.051-21.1-8.371-51.6-28.121-67.507-38.994a1.336,1.336,0,0,1,1.265-2.338c19.85,8.169,59.445,23.657,76.878,24.777C315.565,210.32,405.889,164.424,448,142.6A1.379,1.379,0,0,1,449.4,144.971Z" style="fill:black"/><path d="M275.825,262.314c4.319.466,26.989-1.4,18.948-9.085q-23.389-13.344-46.085-27.859c-1.606-1.027-3.52-1.338-4.915.265-1.121,1.288-.746,2.826-.392,4.323C247.122,245.753,258.453,261.124,275.825,262.314Z" style="fill:black"/><path d="M367.764,231.965c1.033-2.642,1.786-7.039-2.115-7.48a3.883,3.883,0,0,0-2.472.754c-3.841,2.437-7.673,4.889-11.541,7.283q-17.175,10.685-34.749,20.707c-3.642,2.751-.847,6.265,2.846,6.835C342.428,268.372,362.089,254.221,367.764,231.965Z" style="fill:black"/><path d="M356.538,568.414a411.614,411.614,0,0,1-45.4,27.628,1,1,0,0,0,.771,1.828C423.119,558.8,528.338,445.3,514.2,321.138c-2.633-13.38-19.225-14.211-29.484-18.913-21.024-8.043-26.822-38.588-34.779-35.457-4.691,2.552.187,8.621.571,12.458a182.475,182.475,0,0,1,4.158,18.732c19.679,91.748-56.066,170.87-132.494,208.8-53.734,22.282-116.263-32.523-148.574-70.644-20.621-25.957-39.845-71.354-27.365-104.4,4.016-.942,2.234,7.985,3.087,10.474,2.7,29.918,19.34,60.241,38.8,82.055,62.9,70.5,125.81,66.261,146.682,53.318,46.612-26.79,88.554-66.769,104.579-119.361a109.389,109.389,0,0,0-11.664-82.126c-5.154-10.146-10.65-13.533-18.666-3.322-7.711,8.446-15.189,17.213-23.847,24.68a2.2,2.2,0,0,1-3.5-2.43c8.6-23.139,12.733-48.071,13.318-72.651a1,1,0,0,0-1.964-.265c-9.149,30.292-47.945,118.194-87.775,117.22-37.054-6.7-71.791-72.618-84.177-106.193-4.617-5.269-3.006,13.439-1.814,18.349,3.354,15.878-14.3,16.263-6.918,40.39,12.846,42.53,50.726,81.476,88.885,94.1,10.953,3.623,22.862,4.079,33.7-.819,23.617-12.832,67.358-58.368,68.866-58.351,3.786.043.971,4.942.224,6.57-16.92,36.747-47.447,68.126-84.441,84.712-12.957,4.685-119.757-17.352-128.063-148.7-.955-15.1-11.864-7.035-18.823-2.014-16.347,14.856-10.479,34.446-37.266,38.166C75.309,331.891,131.4,422.9,152.417,461.268c2.663,2.87.185,6.218-2.959,3.547A121.728,121.728,0,0,1,137.3,451.677c-27.081-32.96-43.586-75.47-43.4-118.3,1.57-8.636-6.658-10.278-9.91-2.529-16.759,34.222,1.047,73.617,16.769,104.97,39.3,71.316,115.975,122.9,185.336,141.548,16.831,4.526,33.008-2.805,46.789-11.638C406.68,521.7,481.172,455.371,487.049,364.5c.892-3.849-2.508-12.549,4.122-11.844a3.7,3.7,0,0,1,2.882,3.169C503.865,446.279,423.351,519.732,356.538,568.414Z" style="fill:black"/></svg>